# Rhino

g object_1
v 10 10 -100
v 10 10 -90
v 10 260 -100
v 10 260 -90
v 470 10 -100
v 470 10 -90
v 470 260 -100
v 470 260 -90
vt 0 0
vt 0 0.5098036527633667
vt 0.1760563403367996 0
vt 0.1760563403367996 0.5098036527633667
vt 0.1760563403367996 0
vt 0.1760563403367996 0.5098036527633667
vt 0.5 0
vt 0.5 0.5098036527633667
vt 0.5 0
vt 0.5 0.5098036527633667
vt 0.6760563254356384 0
vt 0.6760563254356384 0.5098036527633667
vt 0.6760563254356384 0
vt 0.6760563254356384 0.5098036527633667
vt 1 0
vt 1 0.5098036527633667
vt 0.3239436745643616 1
vt 0.3239436745643616 0.5098041892051697
vt 0 0.5098041892051697
vt 0 1
vt 1 0.5098041892051697
vt 1 1
vt 0.6760563254356384 1
vt 0.6760563254356384 0.5098041892051697
vn -1 0 0
vn -1 0 0
vn -1 0 0
vn -1 0 0
vn 0 1 0
vn 0 1 0
vn 0 1 0
vn 0 1 0
vn 1 0 0
vn 1 0 0
vn 1 0 0
vn 1 0 0
vn 0 -1 0
vn 0 -1 0
vn 0 -1 0
vn 0 -1 0
vn 0 0 1
vn 0 0 1
vn 0 0 1
vn 0 0 1
vn 0 0 -1
vn 0 0 -1
vn 0 0 -1
vn 0 0 -1
f 2/1/1 4/3/3 3/4/4 1/2/2
f 4/5/5 8/7/7 7/8/8 3/6/6
f 8/9/9 6/11/11 5/12/12 7/10/10
f 6/13/13 2/15/15 1/16/16 5/14/14
f 4/18/18 2/17/17 6/20/20
f 6/20/20 8/19/19 4/18/18
f 3/22/22 5/24/24 1/21/21
f 5/24/24 3/22/22 7/23/23
